# xmcd CD database file generated by OrangeCD 6.5
#
# Track frame offsets:
#	150
#	12750
#	28285
#	60724
#	73097
#	90906
#	104564
#	116169
#	132087
#	147439
#	154153
#	170389
#	203685
#
# Disc length: 3374 seconds
#
# Revision: 1
# Processed by: cddbd v1.5.2PL0 Copyright (c) Steve Scherf et al.
# Submitted via: OrangeCD 6.5
#
DISCID=b40d2c0d
DTITLE=Taste - I'll Remember
DYEAR=2015
DGENRE=Blues
TTITLE0=Wee Wee Baby
TTITLE1=How Many More Years
TTITLE2=Take It Easy Baby
TTITLE3=Pardon Me Mister
TTITLE4=You've GotTo Pay
TTITLE5=Norman Invasion
TTITLE6=Worried Man
TTITLE7=Blister On The Moon
TTITLE8=Born On The Wrong Side Of Time
TTITLE9=Summertime
TTITLE10=Blister On The Moon
TTITLE11=I Got My Brand On You
TTITLE12=Medley
EXTD=
EXTT0=
EXTT1=
EXTT2=
EXTT3=
EXTT4=
EXTT5=
EXTT6=
EXTT7=
EXTT8=
EXTT9=
EXTT10=
EXTT11=
EXTT12=
PLAYORDER=
